<?xml version="1.0" encoding="UTF-8" standalone="no"?>
<svg
   xmlns:dc="http://purl.org/dc/elements/1.1/"
   xmlns:cc="http://creativecommons.org/ns#"
   xmlns:rdf="http://www.w3.org/1999/02/22-rdf-syntax-ns#"
   xmlns:svg="http://www.w3.org/2000/svg"
   xmlns="http://www.w3.org/2000/svg"
   xmlns:sodipodi="http://sodipodi.sourceforge.net/DTD/sodipodi-0.dtd"
   xmlns:inkscape="http://www.inkscape.org/namespaces/inkscape"
   sodipodi:docname="ac-full-logo.svg"
   inkscape:version="1.0 (4035a4f, 2020-05-01)"
   id="svg2006"
   version="1.1"
   viewBox="0 0 155.80701 23.146"
   height="23.146mm"
   width="155.80701mm">
  <defs
     id="defs2000" />
  <sodipodi:namedview
     inkscape:window-maximized="0"
     inkscape:window-y="132"
     inkscape:window-x="129"
     inkscape:window-height="943"
     inkscape:window-width="1252"
     showgrid="false"
     inkscape:document-rotation="0"
     inkscape:current-layer="layer1"
     inkscape:document-units="mm"
     inkscape:cy="560"
     inkscape:cx="400"
     inkscape:zoom="0.35"
     inkscape:pageshadow="2"
     inkscape:pageopacity="0.0"
     borderopacity="1.0"
     bordercolor="#666666"
     pagecolor="#ffffff"
     id="base" />
  <metadata
     id="metadata2003">
    <rdf:RDF>
      <cc:Work
         rdf:about="">
        <dc:format>image/svg+xml</dc:format>
        <dc:type
           rdf:resource="http://purl.org/dc/dcmitype/StillImage" />
        <dc:title></dc:title>
      </cc:Work>
    </rdf:RDF>
  </metadata>
  <g
     id="layer1"
     inkscape:groupmode="layer"
     inkscape:label="Layer 1">
    <g
       style="font-style:normal;font-weight:normal;font-size:10.5833px;line-height:1.25;font-family:sans-serif;fill:#000000;fill-opacity:1;stroke:none;stroke-width:0.264583"
       id="text2571"
       aria-label="Awesome Credit">
      <path
         id="path2573"
         style="font-style:normal;font-variant:normal;font-weight:normal;font-stretch:normal;font-size:25.4px;font-family:Noteworthy;-inkscape-font-specification:Noteworthy;fill:#ff6600;stroke-width:0.264583"
         d="m 15.494,16.03375 q 0,1.016 -0.79375,1.016 -0.3175,0 -0.66675,-0.127 0,1.61925 0.79375,3.6195 -0.03175,0.41275 -0.41275,0.66675 -0.34925,0.254 -0.79375,0.254 -0.381,0 -0.85725,-0.22225 -0.254,-0.508 -0.254,-1.5875 0,-0.28575 0.03175,-1.04775 0,-0.762 0,-1.04775 0,-0.5715 -0.09525,-0.762 -0.28575,-0.03175 -0.8255,0.03175 -0.508,0.0635 -0.73025,0.0635 -1.3652501,0 -4.2862501,0.381 Q 3.27025,17.7165 2.76225,18.161 2.4765,18.38325 2.159,20.447 1.905,22.12975 1.87325,22.9235 1.7145,23.14575 1.42875,23.14575 1.016,23.14575 0.50799999,22.733 0,22.32025 0,21.93925 0,21.74875 0.254,21.082 0.50799999,20.41525 0.53974999,20.2565 1.0795,16.73225 2.6035,12.47775 6.7944999,0.57150044 9.0804999,0.57150044 q 2.4447501,0 3.7782501,6.22299996 Q 13.335,8.9852503 13.97,15.1765 q 0.1905,0.15875 0.9525,0.34925 0.5715,0.127 0.5715,0.508 z M 12.41425,15.113 Q 11.6205,9.5250003 11.39825,8.3502503 10.3505,3.0162504 9.1757499,3.0480004 q -1.30175,0.0635 -3.27025,4.8894999 -1.11125,3.0479997 -2.19075,6.0959997 -0.1905,0.41275 -0.4127499,1.23825 -0.127,0.762 0.4444999,0.762 0.1905,0 1.93675,-0.3175 1.36525,-0.254 6.7310001,-0.60325 z" />
      <path
         id="path2575"
         style="font-style:normal;font-variant:normal;font-weight:normal;font-stretch:normal;font-size:25.4px;font-family:Noteworthy;-inkscape-font-specification:Noteworthy;fill:#ff6600;stroke-width:0.264583"
         d="m 31.204297,11.90625 q 0,3.01625 -0.79375,5.969 -1.11125,4.191 -3.2385,4.191 -1.55575,0 -2.667,-1.93675 -0.41275,-0.9525 -0.8255,-1.93675 l -0.127,0.0635 q -0.4445,1.27 -0.92075,2.54 -0.66675,1.4605 -2.00025,1.4605 -4.03225,0 -4.03225,-9.68375 0,-2.2225 0.127,-3.4924997 0.22225,-0.3175 0.5715,-0.3175 0.34925,0 0.8255,0.28575 0.47625,0.254 0.47625,0.60325 0,0.4127497 -0.22225,1.3017497 -0.1905,0.85725 -0.1905,1.36525 0,8.255 2.12725,8.255 1.36525,0 2.19075,-3.1115 0.66675,-2.38125 0.635,-4.28625 v -3.048 q 0,-0.6667497 0.762,-0.6667497 0.92075,0 0.92075,1.2699997 0,0.15875 -0.0635,0.47625 -0.03175,0.3175 -0.03175,0.47625 v 3.90525 q 0,1.36525 0.47625,2.921 0.60325,2.06375 1.61925,2.06375 1.36525,0 2.286,-3.46075 0.6985,-2.667 0.6985,-4.66725 0,-2.00025 -0.254,-2.44475 0,-0.03175 -0.22225,-0.2857497 -0.22225,-0.254 -0.22225,-0.34925 0,-0.34925 0.28575,-0.66675 0.3175,-0.3175 0.66675,-0.3175 1.143,0 1.143,3.5242497 z" />
      <path
         id="path2577"
         style="font-style:normal;font-variant:normal;font-weight:normal;font-stretch:normal;font-size:25.4px;font-family:Noteworthy;-inkscape-font-specification:Noteworthy;fill:#ff6600;stroke-width:0.264583"
         d="m 42.0747,18.89125 q 0,1.397 -1.87325,2.50825 -1.68275,1.016 -3.175,1.016 -4.2545,0 -4.2545,-5.3975 0,-2.38125 0.85725,-5.11175 1.143,-3.5559997 2.921,-3.5559997 1.524,0 3.33375,1.55575 Q 41.6937,11.43 41.6937,12.954 q 0,1.9685 -1.5875,3.429 -1.5875,1.4605 -3.58775,1.4605 -0.1905,0 -0.8255,-0.3175 -0.60325,-0.3175 -0.8255,-0.3175 -0.41275,0 -0.41275,0.254 0,3.65125 2.413,3.65125 1.23825,0 2.286,-0.8255 0.635,-0.47625 1.397,-1.49225 0.60325,-0.79375 0.79375,-0.79375 0.73025,0 0.73025,0.889 z m -2.19075,-5.842 q 0,-1.11125 -0.635,-2.06375 -0.635,-0.98425 -1.68275,-0.98425 -1.27,0 -2.06375,1.5875 -0.66675,1.3335 -0.66675,2.76225 0,0.92075 0.5715,1.55575 0.60325,0.60325 1.524,0.60325 1.30175,0 2.159,-1.11125 0.79375,-1.016 0.79375,-2.3495 z" />
      <path
         id="path2579"
         style="font-style:normal;font-variant:normal;font-weight:normal;font-stretch:normal;font-size:25.4px;font-family:Noteworthy;-inkscape-font-specification:Noteworthy;fill:#ff6600;stroke-width:0.264583"
         d="m 52.738732,20.16125 q 0,1.11125 -1.68275,1.87325 -1.397,0.60325 -2.69875,0.60325 -0.85725,0 -1.9685,-0.41275 -0.60325,-0.254 -1.93675,-1.3335 -1.4605,-1.17475 -1.4605,-1.61925 0,-0.98425 1.17475,-0.889 h 0.1905 q 0.0635,0.9525 2.032,2.06375 1.778,1.016 2.8575,1.016 1.397,0 1.397,-0.9525 0,-0.5715 -1.7145,-1.5875 -2.3495,-1.36525 -3.20675,-2.19075 -1.74625,-1.68275 -1.74625,-3.8735 0,-1.651 0.85725,-3.1432497 0.98425,-1.778 2.4765,-1.778 1.0795,0 2.6035,1.016 1.524,0.98425 1.778,2.0002497 0.254,0.85725 0.254,2.00025 0,1.23825 -0.4445,2.69875 -0.28575,0.22225 -0.66675,0.22225 -0.22225,0 -0.6985,-0.15875 -0.47625,-0.1905 -0.47625,-0.381 0,0.127 0.34925,-0.6985 0.254,-0.53975 0.254,-1.9685 0,-3.3972497 -2.12725,-3.3972497 -1.11125,0 -1.778,1.4922497 -0.5715,1.2065 -0.5715,2.44475 0,1.55575 1.80975,3.01625 0.60325,0.508 3.33375,2.19075 1.80975,1.11125 1.80975,1.74625 z" />
      <path
         id="path2581"
         style="font-style:normal;font-variant:normal;font-weight:normal;font-stretch:normal;font-size:25.4px;font-family:Noteworthy;-inkscape-font-specification:Noteworthy;fill:#ff6600;stroke-width:0.264583"
         d="m 64.119125,15.77975 q 0,2.7305 -1.2065,4.7625 -1.42875,2.44475 -3.96875,2.44475 -2.57175,0 -3.84175,-2.00025 -1.04775,-1.651 -1.04775,-4.3815 0,-2.69875 1.2065,-5.30225 1.524,-3.2067497 3.8735,-3.2067497 0.60325,0 1.7145,0.6985 3.27025,2.0319997 3.27025,6.9849997 z m -1.524,-0.03175 q 0,-2.032 -0.53975,-3.65125 -0.79375,-2.2542497 -2.44475,-2.2542497 -1.905,0 -2.9845,2.5082497 -0.8255,1.93675 -0.8255,4.15925 0,2.00025 0.5715,3.3655 0.8255,1.87325 2.57175,1.87325 1.905,0 2.88925,-2.159 0.762,-1.68275 0.762,-3.84175 z" />
      <path
         id="path2583"
         style="font-style:normal;font-variant:normal;font-weight:normal;font-stretch:normal;font-size:25.4px;font-family:Noteworthy;-inkscape-font-specification:Noteworthy;fill:#ff6600;stroke-width:0.264583"
         d="m 80.732308,22.225 q -0.66675,0.41275 -1.016,0.41275 -0.22225,0 -0.635,-0.22225 0.03175,-0.508 0.03175,-1.7145 0.03175,-1.11125 0.03175,-1.7145 0,-9.7789997 -2.032,-9.7789997 -1.2065,0 -2.0955,3.0479997 -0.6985,2.44475 -0.6985,4.1275 v 3.175 q 0,0.254 0.127,0.73025 0.15875,0.4445 0.15875,0.66675 0,0.254 -0.34925,0.508 -0.34925,0.254 -0.60325,0.254 -0.28575,0 -0.635,-0.381 -0.34925,-0.41275 -0.34925,-0.6985 v -6.38175 q 0,-1.016 -0.34925,-2.57175 -0.4445,-1.9684997 -1.0795,-1.9684997 -0.34925,0 -1.04775,0.8889997 -2.38125,3.048 -2.38125,7.493 0,0.53975 0.127,1.61925 0.127,1.04775 0.127,1.55575 0,0.9525 -0.79375,0.9525 -0.381,0 -0.66675,-0.3175 -0.127,-0.15875 -0.28575,-1.42875 -0.15875,-1.143 -0.15875,-1.55575 V 11.43 q 0,-3.2384997 0.762,-3.2384997 0.3175,0 0.635,0.3175 0.34925,0.28575 0.34925,0.60325 0,0.66675 -0.1905,1.7462497 -0.1905,1.397 -0.22225,1.74625 l 0.15875,0.15875 q 0.60325,-1.36525 1.2065,-2.7305 0.85725,-1.7462497 2.032,-1.7462497 1.651,0 2.8575,3.5559997 0.3175,-0.381 0.79375,-1.5875 0.47625,-1.2064997 0.85725,-1.7144997 0.60325,-0.762 1.49225,-0.762 0.85725,0 1.905,1.143 1.93675,2.0637497 1.93675,7.4612497 z" />
      <path
         id="path2585"
         style="font-style:normal;font-variant:normal;font-weight:normal;font-stretch:normal;font-size:25.4px;font-family:Noteworthy;-inkscape-font-specification:Noteworthy;fill:#ff6600;stroke-width:0.264583"
         d="m 92.031342,18.89125 q 0,1.397 -1.87325,2.50825 -1.68275,1.016 -3.175,1.016 -4.2545,0 -4.2545,-5.3975 0,-2.38125 0.85725,-5.11175 1.143,-3.5559997 2.921,-3.5559997 1.524,0 3.33375,1.55575 1.80975,1.5239997 1.80975,3.0479997 0,1.9685 -1.5875,3.429 -1.5875,1.4605 -3.58775,1.4605 -0.1905,0 -0.8255,-0.3175 -0.60325,-0.3175 -0.8255,-0.3175 -0.41275,0 -0.41275,0.254 0,3.65125 2.413,3.65125 1.23825,0 2.286,-0.8255 0.635,-0.47625 1.397,-1.49225 0.60325,-0.79375 0.79375,-0.79375 0.73025,0 0.73025,0.889 z m -2.19075,-5.842 q 0,-1.11125 -0.635,-2.06375 -0.635,-0.98425 -1.68275,-0.98425 -1.27,0 -2.06375,1.5875 -0.66675,1.3335 -0.66675,2.76225 0,0.92075 0.5715,1.55575 0.60325,0.60325 1.524,0.60325 1.30175,0 2.159,-1.11125 0.79375,-1.016 0.79375,-2.3495 z" />
      <path
         id="path2587"
         style="font-style:normal;font-variant:normal;font-weight:normal;font-stretch:normal;font-size:25.4px;font-family:Noteworthy;-inkscape-font-specification:Noteworthy;fill:#ff6600;stroke-width:0.264583"
         d="m 114.20673,17.145 q 0,0.508 -0.28575,1.3335 -0.66675,1.93675 -2.69875,3.1115 -1.87325,1.0795 -4.064,1.0795 -3.71475,0 -5.588,-3.048 -1.5875,-2.50825 -1.5875,-6.44525 0,-3.3654997 0.98425,-6.3499996 1.11125,-3.4925 3.302,-5.3975 Q 105.88823,4.529953e-7 107.53923,4.529953e-7 q 2.44475,0 3.65125,2.3494999470047 0.9525,1.8415 0.9525,4.5402499 0,1.3335 -0.41275,3.07975 -0.53975,2.2859997 -1.397,2.2859997 -0.66675,0 -0.9525,-0.6985 0.1905,-0.127 0.60325,-0.4445 0.8255,-0.79375 0.8255,-3.8734997 0,-1.8732499 -0.6985,-3.5877499 -0.889,-2.2225 -2.44475,-2.2225 -1.23825,0 -2.6035,1.49225 -1.016,1.11125 -1.74625,2.57175 -1.61925,3.3654999 -1.61925,8.2867496 0,3.27025 1.143,5.207 1.42875,2.413 4.445,2.413 1.651,0 3.01625,-0.85725 1.36525,-0.889 2.0955,-2.3495 0.127,-0.47625 0.53975,-1.3335 0.254,-0.41275 0.635,-0.41275 0.635,0 0.635,0.6985 z" />
      <path
         id="path2589"
         style="font-style:normal;font-variant:normal;font-weight:normal;font-stretch:normal;font-size:25.4px;font-family:Noteworthy;-inkscape-font-specification:Noteworthy;fill:#ff6600;stroke-width:0.264583"
         d="m 122.37045,10.7315 q 0,0.127 -0.0318,0.53975 -0.41275,0.635 -0.79375,0.635 -0.254,0 -0.4445,-0.3175 -0.0952,-2.0002497 -1.651,-2.0002497 -1.016,0 -2.00025,3.7464997 -0.381,1.36525 -0.381,3.65125 0,2.921 0.15875,3.58775 0.0318,0.09525 0.15875,0.41275 0.127,0.28575 0.127,0.4445 0,0.6985 -0.9525,0.6985 -1.0795,0 -1.0795,-1.11125 0,-0.15875 0.0635,-0.4445 0.0952,-0.3175 0.0952,-0.47625 0,-1.74625 -0.15875,-5.23875 -0.15875,-3.4925 -0.15875,-5.2387497 0,-0.635 0.22225,-0.762 0.22225,-0.15875 0.85725,-0.15875 0.79375,0 0.92075,0.5715 0.0318,0.635 0.0635,1.2382497 0.8255,-1.2699997 0.9525,-1.4287497 0.6985,-0.79375 1.4605,-0.79375 0.5715,0 1.143,0.34925 0.3175,0.1905 0.85725,0.98425 0.5715,0.7937497 0.5715,1.1112497 z" />
      <path
         id="path2591"
         style="font-style:normal;font-variant:normal;font-weight:normal;font-stretch:normal;font-size:25.4px;font-family:Noteworthy;-inkscape-font-specification:Noteworthy;fill:#ff6600;stroke-width:0.264583"
         d="m 132.26454,18.89125 q 0,1.397 -1.87325,2.50825 -1.68275,1.016 -3.175,1.016 -4.2545,0 -4.2545,-5.3975 0,-2.38125 0.85725,-5.11175 1.143,-3.5559997 2.921,-3.5559997 1.524,0 3.33375,1.55575 1.80975,1.5239997 1.80975,3.0479997 0,1.9685 -1.5875,3.429 -1.5875,1.4605 -3.58775,1.4605 -0.1905,0 -0.8255,-0.3175 -0.60325,-0.3175 -0.8255,-0.3175 -0.41275,0 -0.41275,0.254 0,3.65125 2.413,3.65125 1.23825,0 2.286,-0.8255 0.635,-0.47625 1.397,-1.49225 0.60325,-0.79375 0.79375,-0.79375 0.73025,0 0.73025,0.889 z m -2.19075,-5.842 q 0,-1.11125 -0.635,-2.06375 -0.635,-0.98425 -1.68275,-0.98425 -1.27,0 -2.06375,1.5875 -0.66675,1.3335 -0.66675,2.76225 0,0.92075 0.5715,1.55575 0.60325,0.60325 1.524,0.60325 1.30175,0 2.159,-1.11125 0.79375,-1.016 0.79375,-2.3495 z" />
      <path
         id="path2593"
         style="font-style:normal;font-variant:normal;font-weight:normal;font-stretch:normal;font-size:25.4px;font-family:Noteworthy;-inkscape-font-specification:Noteworthy;fill:#ff6600;stroke-width:0.264583"
         d="m 143.74217,1.8732504 q 0,0.73025 -0.1905,1.87325 -0.22225,1.49225 -0.28575,1.87325 -0.0952,0.98425 -0.3175,6.5404996 -0.1905,5.08 -0.1905,5.61975 0,3.39725 0.60325,4.79425 -0.22225,0.34925 -0.5715,0.34925 -0.3175,0 -0.73025,-0.3175 -0.381,-0.3175 -0.47625,-0.635 0,-0.635 -0.1905,-1.93675 -1.87325,2.38125 -3.58775,2.38125 -2.06375,0 -3.175,-1.55575 -0.9525,-1.3335 -0.9525,-3.52425 0,-2.667 0.98425,-5.5245 1.27,-3.7464997 3.3655,-3.7464997 0.889,0 1.80975,0.66675 0.1905,0.127 1.49225,1.3334997 0.3175,-2.1589997 0.3175,-9.46149956 0.22225,-0.22224999 0.60325,-0.22224999 0.60325,0 1.04775,0.44449999 0.4445,0.44449996 0.4445,1.04774996 z M 141.36092,13.589 q 0,-1.397 -0.635,-2.50825 -0.762,-1.3334997 -2.06375,-1.3334997 -1.5875,0 -2.54,3.2384997 -0.762,2.44475 -0.762,4.60375 0,1.397 0.4445,2.413 0.60325,1.3335 1.80975,1.3335 1.9685,0 2.9845,-3.048 0.762,-2.19075 0.762,-4.699 z" />
      <path
         id="path2595"
         style="font-style:normal;font-variant:normal;font-weight:normal;font-stretch:normal;font-size:25.4px;font-family:Noteworthy;-inkscape-font-specification:Noteworthy;fill:#ff6600;stroke-width:0.264583"
         d="m 148.47292,4.8577504 q 0,1.0795 -1.016,1.0795 -0.60325,0 -1.11125,-0.4445 -0.508,-0.4445 -0.508,-1.016 0,-1.0795 1.0795,-1.0795 0.635,0 1.0795,0.41275 0.47625,0.41275 0.47625,1.04775 z m -0.60325,4.7624999 q 0,0.5714997 -0.254,1.7144997 -0.254,1.143 -0.254,1.7145 V 20.066 q 0,0.6985 0.28575,1.905 -0.127,0.254 -0.34925,0.254 -1.55575,0 -1.55575,-1.49225 V 9.0805003 q 0.41275,-0.22225 0.79375,-0.22225 0.381,0 0.79375,0.22225 0.53975,0.22225 0.53975,0.53975 z" />
      <path
         id="path2597"
         style="font-style:normal;font-variant:normal;font-weight:normal;font-stretch:normal;font-size:25.4px;font-family:Noteworthy;-inkscape-font-specification:Noteworthy;fill:#ff6600;stroke-width:0.264583"
         d="m 155.39442,12.03325 q -0.254,0.1905 -1.2065,0.3175 -1.04775,0.127 -1.2065,0.22225 -0.0318,0.34925 -0.0318,3.52425 0,2.4765 0.0635,3.33375 0,0.34925 0.15875,1.11125 0.15875,0.762 0.15875,1.17475 0,0.254 -0.3175,0.508 -0.3175,0.254 -0.5715,0.254 -0.635,0 -1.016,-1.30175 -0.254,-0.9525 -0.254,-1.80975 0,-4.47675 0.0635,-6.604 -0.1905,-0.15875 -1.4605,0 -1.016,0.127 -1.016,-0.73025 0,-1.2065 2.57175,-1.11125 l 0.41275,-5.7467496 q 0,-0.09525 -0.0952,-0.28575 -0.0635,-0.22225 -0.0635,-0.3175 0,-0.1905 0.254,-0.34925 0.254,-0.1905 0.60325,-0.15875 1.11125,0.09525 1.11125,1.11125 0,0.79375 -0.22225,2.3812499 -0.22225,1.5875 -0.22225,2.3495 0,0.3809997 0.0635,0.7302497 l 1.74625,-0.09525 q 0.889,0 0.889,0.6985 0,0.508 -0.41275,0.79375 z" />
    </g>
  </g>
</svg>
