<?xml version="1.0" encoding="UTF-8" standalone="no"?>
<svg
   xmlns:dc="http://purl.org/dc/elements/1.1/"
   xmlns:cc="http://creativecommons.org/ns#"
   xmlns:rdf="http://www.w3.org/1999/02/22-rdf-syntax-ns#"
   xmlns:svg="http://www.w3.org/2000/svg"
   xmlns="http://www.w3.org/2000/svg"
   xmlns:sodipodi="http://sodipodi.sourceforge.net/DTD/sodipodi-0.dtd"
   xmlns:inkscape="http://www.inkscape.org/namespaces/inkscape"
   width="500"
   height="500"
   viewBox="0 0 132.29166 132.29167"
   version="1.1"
   id="svg8"
   inkscape:version="1.0 (4035a4f, 2020-05-01)"
   sodipodi:docname="ac-logo.svg">
  <defs
     id="defs2" />
  <sodipodi:namedview
     id="base"
     pagecolor="#ffffff"
     bordercolor="#666666"
     borderopacity="1.0"
     inkscape:pageopacity="0.0"
     inkscape:pageshadow="2"
     inkscape:zoom="1.424"
     inkscape:cx="273.11571"
     inkscape:cy="250"
     inkscape:document-units="mm"
     inkscape:current-layer="layer1"
     inkscape:document-rotation="0"
     showgrid="false"
     units="px"
     inkscape:window-width="1252"
     inkscape:window-height="943"
     inkscape:window-x="0"
     inkscape:window-y="23"
     inkscape:window-maximized="0" />
  <metadata
     id="metadata5">
    <rdf:RDF>
      <cc:Work
         rdf:about="">
        <dc:format>image/svg+xml</dc:format>
        <dc:type
           rdf:resource="http://purl.org/dc/dcmitype/StillImage" />
        <dc:title />
      </cc:Work>
    </rdf:RDF>
  </metadata>
  <g
     inkscape:label="Layer 1"
     inkscape:groupmode="layer"
     id="layer1">
    <rect
       style="opacity:1;fill:#ff6600;fill-opacity:1;stroke:none;stroke-width:0.264583"
       id="rect1402"
       width="132.29167"
       height="132.29167"
       x="0.1322915"
       y="0.1322915"
       rx="13.229167" />
    <g
       style="font-style:normal;font-weight:normal;font-size:88.1944px;line-height:1.25;font-family:sans-serif;text-align:center;text-anchor:middle;fill:#000000;fill-opacity:1;stroke:none;stroke-width:0.264583"
       id="text1406"
       aria-label="AC">
      <path
         id="path1995"
         style="font-style:normal;font-variant:normal;font-weight:normal;font-stretch:normal;font-size:88.1944px;font-family:Noteworthy;-inkscape-font-specification:Noteworthy;text-align:center;text-anchor:middle;fill:#e3dbdb;stroke-width:0.264583"
         d="m 66.018367,81.634952 q 0,3.527776 -2.756075,3.527776 -1.10243,0 -2.315103,-0.440972 0,5.622393 2.756075,12.567702 -0.110243,1.433159 -1.433159,2.315103 -1.212673,0.881939 -2.756075,0.881939 -1.322916,0 -2.976561,-0.771696 -0.881944,-1.763888 -0.881944,-5.51215 0,-0.992187 0.110243,-3.638019 0,-2.645832 0,-3.638019 0,-1.984374 -0.330729,-2.645832 -0.992187,-0.110243 -2.866318,0.110243 -1.763888,0.220486 -2.535589,0.220486 -4.740449,0 -14.882804,1.322916 -11.575515,1.543402 -13.339403,3.086804 -0.992187,0.771701 -2.094617,7.937496 -0.881944,5.842881 -0.992187,8.598951 -0.551215,0.7717 -1.543402,0.7717 -1.433159,0 -3.197047,-1.43316 -1.763888,-1.43315 -1.763888,-2.75607 0,-0.66146 0.881944,-2.976561 0.881944,-2.315103 0.992187,-2.866318 1.874131,-12.236973 7.165795,-27.009534 14.552076,-41.341124 22.489571,-41.341124 8.488711,0 13.118917,21.607627 1.653645,7.606767 3.858505,29.104151 0.661458,0.551215 3.30729,1.212673 1.984374,0.440972 1.984374,1.763888 z M 55.324796,78.437905 Q 52.568721,59.035138 51.79702,54.956147 48.159001,36.435324 44.08001,36.545567 q -4.519963,0.220486 -11.355028,16.977421 -3.858505,10.583328 -7.606767,21.166656 -0.661458,1.433159 -1.433159,4.299476 -0.440972,2.645832 1.543402,2.645832 0.661458,0 6.724823,-1.10243 4.740449,-0.881944 23.371515,-2.094617 z" />
      <path
         id="path1997"
         style="font-style:normal;font-variant:normal;font-weight:normal;font-stretch:normal;font-size:88.1944px;font-family:Noteworthy;-inkscape-font-specification:Noteworthy;text-align:center;text-anchor:middle;fill:#e3dbdb;stroke-width:0.264583"
         d="m 120.07189,85.493457 q 0,1.763888 -0.99219,4.630206 -2.3151,6.724823 -9.37066,10.803817 -6.50433,3.74826 -14.111099,3.74826 -12.898431,0 -19.402767,-10.583329 -5.51215,-8.709197 -5.51215,-22.379328 0,-11.685758 3.417533,-22.0486 3.858504,-12.126729 11.465271,-18.741309 5.622393,-4.960935 11.355029,-4.960935 8.488713,0 12.677943,8.157982 3.30729,6.394094 3.30729,15.764748 0,4.630206 -1.43316,10.693571 -1.87413,7.937496 -4.85069,7.937496 -2.3151,0 -3.30729,-2.425346 0.66146,-0.440972 2.09462,-1.543402 2.86632,-2.756075 2.86632,-13.449646 0,-6.504336 -2.42535,-12.457458 -3.0868,-7.71701 -8.488711,-7.71701 -4.299477,0 -9.039926,5.181421 -3.527776,3.858505 -6.063365,8.929683 -5.622393,11.685757 -5.622393,28.773422 0,11.355028 3.968748,18.079851 4.960935,8.378469 15.43402,8.378469 5.732637,0 10.473087,-2.976562 4.74045,-3.086804 7.27604,-8.157982 0.44097,-1.653645 1.87413,-4.630206 0.88194,-1.433159 2.20486,-1.433159 2.20486,0 2.20486,2.425346 z" />
    </g>
  </g>
</svg>
